<svg width="200" height="58" viewBox="0 0 200 58" fill="none" xmlns="http://www.w3.org/2000/svg">
<g clip-path="url(#clip0_728_127303)">
<mask id="mask0_728_127303" style="mask-type:luminance" maskUnits="userSpaceOnUse" x="0" y="0" width="201" height="57">
<path d="M200.019 0H0V56.8099H200.019V0Z" fill="white"/>
</mask>
<g mask="url(#mask0_728_127303)">
<path d="M47.0898 19.4087H52.3097V47.5523H47.0898V19.4087Z" fill="white"/>
<path d="M76.3345 19.4097V47.5533L62.3781 33.4815V47.5533H57.1582V19.4097L71.1147 33.4815V19.4097H76.3345Z" fill="white"/>
<path d="M105.544 47.516H100.325V31.6899L93.365 38.7445L86.3682 31.6899V47.516H81.1484V19.4097L93.365 31.6899L105.544 19.4097V47.516Z" fill="white"/>
<path d="M132.236 43.4099C129.532 46.172 126.239 47.5531 122.388 47.5531C118.539 47.5531 115.244 46.172 112.504 43.4099C109.764 40.6852 108.395 37.3632 108.395 33.444C108.395 29.5621 109.764 26.24 112.504 23.5153C115.206 20.7532 118.501 19.3721 122.388 19.3721C126.239 19.3721 129.532 20.7532 132.236 23.5153C134.975 26.24 136.344 29.5621 136.344 33.444C136.344 37.3632 134.975 40.6478 132.236 43.4099ZM116.206 27.2479C114.503 28.9649 113.651 31.0178 113.651 33.444C113.651 35.8701 114.503 37.9604 116.206 39.6774C117.909 41.3943 119.982 42.2528 122.388 42.2528C124.794 42.2528 126.83 41.3943 128.533 39.6774C130.237 37.9604 131.088 35.8701 131.088 33.444C131.088 31.0178 130.237 28.9649 128.533 27.2479C126.83 25.5308 124.794 24.6724 122.388 24.6724C119.982 24.6724 117.909 25.5308 116.206 27.2479Z" fill="white"/>
<path d="M144.935 19.4092V42.2525H158.891V47.5155H139.715V19.4092H144.935Z" fill="white"/>
<path d="M164.667 19.4097V38.7445C164.667 39.3417 164.852 39.9388 165.222 40.4988C165.555 41.0213 165.962 41.4319 166.517 41.7305C167.183 42.1037 168.035 42.2904 169.035 42.2904C170.034 42.2904 170.886 42.1037 171.552 41.7305C172.108 41.4319 172.515 41.0213 172.848 40.4988C173.218 39.9016 173.403 39.3417 173.403 38.7445V19.4097H178.624V38.7445C178.624 40.2002 178.216 41.6932 177.438 43.1489C176.735 44.418 175.773 45.4258 174.588 46.1722C173.107 47.1054 171.256 47.5533 169.035 47.5533C165.037 47.5533 162.223 46.0976 160.632 43.1489C159.817 41.6932 159.41 40.2002 159.41 38.7445V19.4097H164.667Z" fill="white"/>
<path d="M200.02 19.4092L193.023 33.481L200.02 47.5528H194.392L190.209 39.1546L186.026 47.5528H180.398L187.395 33.481L180.436 19.4092H186.063L190.246 27.8075L194.392 19.4092H200.02Z" fill="white"/>
<path d="M11.6621 24.5977V4.81503L23.9156 0V27.5838L16.6228 19.8947L11.6621 24.5977Z" fill="white"/>
<path d="M34.5402 18.2148C34.5402 17.8416 34.5402 17.207 34.5402 16.7591C34.5402 16.4979 34.7623 16.274 35.0214 16.274C35.4286 16.274 36.0209 16.2366 36.3912 16.2366C36.9095 16.2366 37.0205 16.0126 37.0205 15.5274C36.9835 13.4745 36.9835 11.3842 37.0205 9.33131C37.0205 8.80875 36.8354 8.69678 36.3541 8.69678C34.3181 8.7341 32.245 8.7341 30.2089 8.69678C29.5055 8.69678 29.3574 8.95806 29.3574 9.59259C29.3944 12.8027 29.3574 16.0126 29.3574 19.1854C29.3574 21.9847 29.3574 30.4577 29.3574 33.2572L34.4662 38.5202C34.4662 35.4221 34.5402 21.3503 34.5402 18.2148Z" fill="white"/>
<path d="M43.8691 19.0365C43.8691 18.4767 43.6841 18.29 43.1288 18.29C40.9076 18.3274 38.6864 18.3274 36.5022 18.29C35.9099 18.29 35.7988 18.4767 35.7988 19.0365C35.7988 21.8734 35.7988 36.9903 35.7988 39.827L43.8322 48.076C43.7951 47.1056 43.8322 20.9028 43.8691 19.0365Z" fill="white"/>
<path d="M27.8414 9.63006C27.8414 7.87575 27.8414 7.87575 29.5443 7.87575C29.6924 7.87575 29.8405 7.87575 29.9886 7.87575C30.5068 7.83843 30.5808 7.72644 30.5808 7.27853C30.5439 5.93481 30.5808 4.62841 30.5808 3.28467C30.5808 2.91142 30.5068 2.68746 30.1737 2.53815C28.5819 1.71699 26.9899 0.895819 25.25 0C25.25 0.485236 25.25 0.858494 25.25 1.19443C25.25 10.0033 25.25 20.3426 25.25 29.1514L27.9154 31.9135C27.8785 25.9041 27.8414 15.6022 27.8414 9.63006Z" fill="white"/>
<path d="M16.807 26.6134L37.057 48.4491H43.3503L16.4369 21.5371C16.4369 21.5371 5.70106 32.2496 0 37.8859H5.77511L16.807 26.6134Z" fill="white"/>
<path d="M37.9844 49.9419H135.791V56.8099H43.9815L37.9844 49.9419Z" fill="white"/>
</g>
<path d="M178.819 50.6318H176.477C176.338 51.6656 176.135 53.7874 176.233 54.3978C176.355 55.1609 177.134 55.7516 179.576 55.7516C182.138 55.7516 182.748 55.1116 183.041 54.4963C183.212 54.1373 183.342 51.7969 183.431 50.6318H181.015C180.918 51.6082 180.713 53.6249 180.674 53.8809C180.625 54.2009 180.259 54.6194 179.576 54.5947C178.892 54.5701 178.624 54.2255 178.599 53.8809C178.58 53.6052 178.738 51.6 178.819 50.6318Z" fill="white"/>
<path fill-rule="evenodd" clip-rule="evenodd" d="M189.482 52.8966L189.751 53.7334C190.157 53.7663 191.142 53.8122 191.727 53.635C192.459 53.4135 192.982 52.9704 193.02 52.1089C193.064 51.1243 192.313 50.6074 191.361 50.6074H187.359C187.359 51.0997 187.164 54.8411 187.066 55.6287H189.263L189.409 52.8966H189.482ZM189.386 52.6996L189.459 51.7151C189.525 51.7151 189.595 51.7135 189.669 51.7118C190.17 51.7003 190.801 51.686 190.801 52.1581C190.801 52.7603 189.629 52.7099 189.416 52.7007C189.401 52.7001 189.391 52.6996 189.386 52.6996Z" fill="white"/>
<path d="M154.539 50.6568C154.539 51.4446 154.368 53.9307 154.197 55.6536H156.515C156.564 54.2998 156.662 52.5768 156.735 51.7153C157.662 51.6661 158.468 51.7153 158.468 52.2075C158.468 52.681 157.95 52.7896 157.662 52.8475C157.418 52.8968 156.995 52.8475 156.808 52.8475L158.004 55.6536L160.493 55.6536C160.415 55.5551 159.647 54.1028 159.273 53.4136C159.566 53.3153 160.737 53.0938 160.761 51.8876C160.773 51.3282 160.255 50.803 159.468 50.7308C157.589 50.5585 155.015 50.6568 154.539 50.6568Z" fill="white"/>
<path d="M150.124 50.7048L150.221 51.9602C149.636 51.8125 148.757 51.6156 148.098 51.6156C147.804 51.6156 145.56 51.714 145.56 53.314C145.56 54.6727 147.269 54.7006 148.123 54.5447V53.8062H147.293V52.7232L150.441 52.6986C150.366 53.6093 150.268 54.717 150.221 55.5539C149.389 55.6523 142.972 56.6123 143.218 53.2155C143.392 50.8066 145.975 50.6064 147.342 50.5079C148.435 50.4291 149.652 50.6064 150.124 50.7048Z" fill="white"/>
<path fill-rule="evenodd" clip-rule="evenodd" d="M168.352 55.7763C170.629 55.7763 172.475 54.8655 172.475 53.1425C172.475 51.1488 170.629 50.5088 168.352 50.5088C166.074 50.5088 164.324 51.3457 164.228 53.1425C164.128 55.0132 166.074 55.7763 168.352 55.7763ZM168.327 54.5949C169.298 54.5949 170.084 53.9447 170.084 53.1427C170.084 52.3406 169.298 51.6904 168.327 51.6904C167.357 51.6904 166.57 52.3406 166.57 53.1427C166.57 53.9447 167.357 54.5949 168.327 54.5949Z" fill="white"/>
</g>
<defs>
<clipPath id="clip0_728_127303">
<rect width="200" height="58" fill="white"/>
</clipPath>
</defs>
</svg>
